<?xml version="1.0" standalone="no"?>
<!DOCTYPE svg PUBLIC "-//W3C//DTD SVG 20010904//EN"
 "http://www.w3.org/TR/2001/REC-SVG-20010904/DTD/svg10.dtd">
<svg version="1.0" xmlns="http://www.w3.org/2000/svg"
 width="90.000000pt" height="90.000000pt" viewBox="0 0 90.000000 90.000000"
 preserveAspectRatio="xMidYMid meet">
<metadata>
Created by potrace 1.14, written by Peter Selinger 2001-2017
</metadata>
<g transform="translate(0.000000,90.000000) scale(0.100000,-0.100000)"
fill="#000000" stroke="none">
<path d="M78 880 c-23 -12 -46 -36 -58 -60 -19 -37 -20 -58 -20 -358 0 -176 3
-333 6 -349 7 -37 39 -75 81 -97 28 -14 75 -16 364 -16 l332 0 43 25 c73 43
76 57 72 445 -3 365 -1 353 -63 402 -29 23 -32 23 -375 25 -328 3 -347 2 -382
-17z m510 -194 c77 -40 91 -145 27 -200 l-26 -22 26 -14 c38 -20 57 -58 59
-115 1 -63 -16 -99 -63 -128 -33 -20 -48 -22 -201 -22 l-165 0 -1 250 c0 138
1 255 3 261 3 7 56 10 156 9 120 -2 159 -6 185 -19z"/>
<path d="M339 623 c-6 -34 -3 -120 3 -129 5 -7 41 -10 94 -9 100 2 128 19 126
77 -1 54 -29 68 -133 68 -49 0 -90 -3 -90 -7z"/>
<path d="M339 398 c0 -13 -1 -50 -1 -83 l-1 -60 103 1 c100 0 103 1 127 28 35
41 24 99 -24 125 -12 6 -62 11 -112 11 -87 0 -91 -1 -92 -22z"/>
</g>
</svg>
